<mxfile host="app.diagrams.net" modified="2020-03-13T08:10:26.638Z" agent="Mozilla/5.0 (X11; Ubuntu; Linux x86_64; rv:74.0) Gecko/20100101 Firefox/74.0" etag="ataedaBfTMrzBFZ2o9Q7" version="12.8.4" type="github">
  <diagram id="v0FbpJbrCGuv36C9x325" name="Page-1">
    <mxGraphModel dx="727" dy="767" grid="1" gridSize="10" guides="1" tooltips="1" connect="1" arrows="1" fold="1" page="1" pageScale="1" pageWidth="850" pageHeight="1100" math="0" shadow="0">
      <root>
        <mxCell id="0" />
        <mxCell id="1" parent="0" />
        <mxCell id="g-qwBjLNSicB4fvvy_zP-10" style="edgeStyle=orthogonalEdgeStyle;shape=link;rounded=0;orthogonalLoop=1;jettySize=auto;html=1;exitX=1;exitY=0.5;exitDx=0;exitDy=0;entryX=0;entryY=0.5;entryDx=0;entryDy=0;" edge="1" parent="1" source="g-qwBjLNSicB4fvvy_zP-2" target="g-qwBjLNSicB4fvvy_zP-9">
          <mxGeometry relative="1" as="geometry" />
        </mxCell>
        <mxCell id="g-qwBjLNSicB4fvvy_zP-16" style="edgeStyle=orthogonalEdgeStyle;shape=link;rounded=0;orthogonalLoop=1;jettySize=auto;html=1;exitX=0.75;exitY=1;exitDx=0;exitDy=0;entryX=0.75;entryY=0;entryDx=0;entryDy=0;" edge="1" parent="1" source="g-qwBjLNSicB4fvvy_zP-2" target="g-qwBjLNSicB4fvvy_zP-3">
          <mxGeometry relative="1" as="geometry" />
        </mxCell>
        <mxCell id="g-qwBjLNSicB4fvvy_zP-2" value="SBC" style="rounded=0;whiteSpace=wrap;html=1;" vertex="1" parent="1">
          <mxGeometry x="380" y="400" width="120" height="60" as="geometry" />
        </mxCell>
        <mxCell id="g-qwBjLNSicB4fvvy_zP-8" style="edgeStyle=orthogonalEdgeStyle;shape=link;rounded=0;orthogonalLoop=1;jettySize=auto;html=1;exitX=0.5;exitY=1;exitDx=0;exitDy=0;entryX=0.5;entryY=0;entryDx=0;entryDy=0;" edge="1" parent="1" source="g-qwBjLNSicB4fvvy_zP-3" target="g-qwBjLNSicB4fvvy_zP-7">
          <mxGeometry relative="1" as="geometry" />
        </mxCell>
        <mxCell id="g-qwBjLNSicB4fvvy_zP-15" style="edgeStyle=orthogonalEdgeStyle;rounded=0;orthogonalLoop=1;jettySize=auto;html=1;exitX=0.25;exitY=0;exitDx=0;exitDy=0;entryX=0.25;entryY=1;entryDx=0;entryDy=0;" edge="1" parent="1" source="g-qwBjLNSicB4fvvy_zP-3" target="g-qwBjLNSicB4fvvy_zP-2">
          <mxGeometry relative="1" as="geometry" />
        </mxCell>
        <mxCell id="g-qwBjLNSicB4fvvy_zP-22" style="edgeStyle=orthogonalEdgeStyle;rounded=0;orthogonalLoop=1;jettySize=auto;html=1;exitX=1;exitY=0.25;exitDx=0;exitDy=0;entryX=0;entryY=0.25;entryDx=0;entryDy=0;" edge="1" parent="1" source="g-qwBjLNSicB4fvvy_zP-3" target="g-qwBjLNSicB4fvvy_zP-19">
          <mxGeometry relative="1" as="geometry" />
        </mxCell>
        <mxCell id="g-qwBjLNSicB4fvvy_zP-23" style="edgeStyle=orthogonalEdgeStyle;shape=link;rounded=0;orthogonalLoop=1;jettySize=auto;html=1;exitX=1;exitY=0.75;exitDx=0;exitDy=0;entryX=0;entryY=0.75;entryDx=0;entryDy=0;" edge="1" parent="1" source="g-qwBjLNSicB4fvvy_zP-3" target="g-qwBjLNSicB4fvvy_zP-19">
          <mxGeometry relative="1" as="geometry" />
        </mxCell>
        <mxCell id="g-qwBjLNSicB4fvvy_zP-3" value="OpenCR" style="rounded=0;whiteSpace=wrap;html=1;" vertex="1" parent="1">
          <mxGeometry x="380" y="520" width="120" height="60" as="geometry" />
        </mxCell>
        <mxCell id="g-qwBjLNSicB4fvvy_zP-6" style="edgeStyle=orthogonalEdgeStyle;shape=link;rounded=0;orthogonalLoop=1;jettySize=auto;html=1;exitX=0.5;exitY=1;exitDx=0;exitDy=0;entryX=0.5;entryY=0;entryDx=0;entryDy=0;" edge="1" parent="1" source="g-qwBjLNSicB4fvvy_zP-4" target="g-qwBjLNSicB4fvvy_zP-2">
          <mxGeometry relative="1" as="geometry" />
        </mxCell>
        <mxCell id="g-qwBjLNSicB4fvvy_zP-12" style="edgeStyle=orthogonalEdgeStyle;shape=link;rounded=0;orthogonalLoop=1;jettySize=auto;html=1;exitX=1;exitY=0.5;exitDx=0;exitDy=0;entryX=0;entryY=0.5;entryDx=0;entryDy=0;" edge="1" parent="1" source="g-qwBjLNSicB4fvvy_zP-4" target="g-qwBjLNSicB4fvvy_zP-11">
          <mxGeometry relative="1" as="geometry" />
        </mxCell>
        <mxCell id="g-qwBjLNSicB4fvvy_zP-26" style="edgeStyle=orthogonalEdgeStyle;rounded=0;orthogonalLoop=1;jettySize=auto;html=1;exitX=0.5;exitY=0;exitDx=0;exitDy=0;entryX=0;entryY=0.5;entryDx=0;entryDy=0;shape=link;" edge="1" parent="1" source="g-qwBjLNSicB4fvvy_zP-4" target="g-qwBjLNSicB4fvvy_zP-24">
          <mxGeometry relative="1" as="geometry" />
        </mxCell>
        <mxCell id="g-qwBjLNSicB4fvvy_zP-28" style="edgeStyle=orthogonalEdgeStyle;shape=link;rounded=0;orthogonalLoop=1;jettySize=auto;html=1;exitX=0.5;exitY=0;exitDx=0;exitDy=0;entryX=0;entryY=0.5;entryDx=0;entryDy=0;" edge="1" parent="1" source="g-qwBjLNSicB4fvvy_zP-4" target="g-qwBjLNSicB4fvvy_zP-27">
          <mxGeometry relative="1" as="geometry" />
        </mxCell>
        <mxCell id="g-qwBjLNSicB4fvvy_zP-30" style="edgeStyle=orthogonalEdgeStyle;shape=link;rounded=0;orthogonalLoop=1;jettySize=auto;html=1;exitX=0.5;exitY=0;exitDx=0;exitDy=0;entryX=1;entryY=0.5;entryDx=0;entryDy=0;" edge="1" parent="1" source="g-qwBjLNSicB4fvvy_zP-4" target="g-qwBjLNSicB4fvvy_zP-29">
          <mxGeometry relative="1" as="geometry" />
        </mxCell>
        <mxCell id="g-qwBjLNSicB4fvvy_zP-4" value="PC" style="rounded=0;whiteSpace=wrap;html=1;" vertex="1" parent="1">
          <mxGeometry x="380" y="280" width="120" height="60" as="geometry" />
        </mxCell>
        <mxCell id="g-qwBjLNSicB4fvvy_zP-7" value="Dynamixel" style="rounded=0;whiteSpace=wrap;html=1;" vertex="1" parent="1">
          <mxGeometry x="380" y="640" width="120" height="60" as="geometry" />
        </mxCell>
        <mxCell id="g-qwBjLNSicB4fvvy_zP-9" value="Raider" style="rounded=0;whiteSpace=wrap;html=1;" vertex="1" parent="1">
          <mxGeometry x="560" y="400" width="120" height="60" as="geometry" />
        </mxCell>
        <mxCell id="g-qwBjLNSicB4fvvy_zP-11" value="RealSense" style="rounded=0;whiteSpace=wrap;html=1;" vertex="1" parent="1">
          <mxGeometry x="560" y="280" width="120" height="60" as="geometry" />
        </mxCell>
        <mxCell id="g-qwBjLNSicB4fvvy_zP-34" style="edgeStyle=orthogonalEdgeStyle;rounded=0;orthogonalLoop=1;jettySize=auto;html=1;exitX=1;exitY=0.5;exitDx=0;exitDy=0;entryX=0;entryY=0.5;entryDx=0;entryDy=0;" edge="1" parent="1" source="g-qwBjLNSicB4fvvy_zP-13" target="g-qwBjLNSicB4fvvy_zP-33">
          <mxGeometry relative="1" as="geometry" />
        </mxCell>
        <mxCell id="g-qwBjLNSicB4fvvy_zP-13" value="POWER" style="rounded=0;whiteSpace=wrap;html=1;" vertex="1" parent="1">
          <mxGeometry x="20" y="520" width="120" height="60" as="geometry" />
        </mxCell>
        <mxCell id="g-qwBjLNSicB4fvvy_zP-18" style="edgeStyle=orthogonalEdgeStyle;rounded=0;orthogonalLoop=1;jettySize=auto;html=1;exitX=1;exitY=0.5;exitDx=0;exitDy=0;entryX=0;entryY=0.5;entryDx=0;entryDy=0;" edge="1" parent="1" source="g-qwBjLNSicB4fvvy_zP-17" target="g-qwBjLNSicB4fvvy_zP-4">
          <mxGeometry relative="1" as="geometry" />
        </mxCell>
        <mxCell id="g-qwBjLNSicB4fvvy_zP-17" value="POWER" style="rounded=0;whiteSpace=wrap;html=1;" vertex="1" parent="1">
          <mxGeometry x="20" y="280" width="120" height="60" as="geometry" />
        </mxCell>
        <mxCell id="g-qwBjLNSicB4fvvy_zP-19" value="Manipulator" style="rounded=0;whiteSpace=wrap;html=1;" vertex="1" parent="1">
          <mxGeometry x="560" y="520" width="120" height="60" as="geometry" />
        </mxCell>
        <mxCell id="g-qwBjLNSicB4fvvy_zP-24" value="Microphone" style="rounded=0;whiteSpace=wrap;html=1;" vertex="1" parent="1">
          <mxGeometry x="560" y="160" width="120" height="60" as="geometry" />
        </mxCell>
        <mxCell id="g-qwBjLNSicB4fvvy_zP-27" value="Speaker" style="rounded=0;whiteSpace=wrap;html=1;" vertex="1" parent="1">
          <mxGeometry x="560" y="40" width="120" height="60" as="geometry" />
        </mxCell>
        <mxCell id="g-qwBjLNSicB4fvvy_zP-29" value="Monitor" style="rounded=0;whiteSpace=wrap;html=1;" vertex="1" parent="1">
          <mxGeometry x="190" y="40" width="120" height="60" as="geometry" />
        </mxCell>
        <mxCell id="g-qwBjLNSicB4fvvy_zP-35" style="edgeStyle=orthogonalEdgeStyle;rounded=0;orthogonalLoop=1;jettySize=auto;html=1;exitX=1;exitY=0.5;exitDx=0;exitDy=0;entryX=0;entryY=0.5;entryDx=0;entryDy=0;" edge="1" parent="1" source="g-qwBjLNSicB4fvvy_zP-33" target="g-qwBjLNSicB4fvvy_zP-3">
          <mxGeometry relative="1" as="geometry" />
        </mxCell>
        <mxCell id="g-qwBjLNSicB4fvvy_zP-33" value="Switch" style="rounded=0;whiteSpace=wrap;html=1;" vertex="1" parent="1">
          <mxGeometry x="200" y="520" width="120" height="60" as="geometry" />
        </mxCell>
      </root>
    </mxGraphModel>
  </diagram>
</mxfile>
